Coordinates
version=1
nRows=12
nColumns=28
inDegrees=yes

Units are S.I. units (second, meters, Newtons, ...)
Angles are in degrees.

endheader
time	pelvis_tilt	pelvis_list	pelvis_rotation	pelvis_tx	pelvis_ty	pelvis_tz	hip_flexion_r	hip_adduction_r	hip_rotation_r	knee_angle_r	ankle_angle_r	subtalar_angle_r	mtp_angle_r	hip_flexion_l	hip_adduction_l	hip_rotation_l	knee_angle_l	socket_flexion	socket_adduction	socket_rotation	socket_tx	socket_ty	socket_tz	foot_flex	lumbar_extension	lumbar_bending	lumbar_rotation
      0.95000000	      3.57270211	      1.88062100	      4.81635061	      0.40384314	      1.04218323	      0.31873968	      1.28784421	      1.78344016	     -9.88390793	    -17.68846833	     11.80971870	     -5.62381751	      9.36050859	     14.57665662	      2.31448826	     11.37862927	    -49.45103581	     10.21737276	      9.29049561	     -1.19227845	      0.05764283	      0.02067265	     -0.03840713	      1.13421478	    -12.96701761	     -1.29743883	     -3.24976192
      0.95416667	      3.53558288	      1.95599975	      4.57342429	      0.40869814	      1.04285111	      0.31926632	      0.88644266	      1.71444619	     -9.92587156	    -17.39375385	     11.75207145	     -5.23754337	      9.47298221	     15.11303948	      2.41617721	     11.43467723	    -49.20339083	      9.97946137	      9.35099643	     -1.22891240	      0.05672673	      0.02038639	     -0.03877429	      1.13358409	    -12.97103043	     -1.45368193	     -3.01824654
      0.95833333	      3.50273444	      2.02127858	      4.32436787	      0.41355176	      1.04351151	      0.31975423	      0.48805238	      1.64932073	     -9.97080491	    -17.11001648	     11.69992920	     -4.89809909	      9.57289048	     15.62874641	      2.50903889	     11.48985842	    -48.93681981	      9.72242432	      9.40076936	     -1.27391351	      0.05570733	      0.02010927	     -0.03910328	      1.13684625	    -12.97050945	     -1.58906222	     -2.82230829
      0.96250000	      3.45748063	      2.09101171	      4.09231511	      0.41837583	      1.04413079	      0.32019227	      0.08901855	      1.57932257	     -9.99450920	    -16.79319636	     11.63486572	     -4.53106007	      9.67936298	     16.12859502	      2.61793663	     11.56531460	    -48.63848092	      9.43880320	      9.42991428	     -1.30173500	      0.05450698	      0.01967101	     -0.03934550	      1.13950923	    -12.97518280	     -1.71182389	     -2.61151790
      0.96666667	      3.45842163	      2.09715271	      3.81888431	      0.42288627	      1.04463969	      0.32056581	     -0.20087582	      1.54875593	    -10.07370748	    -16.75412347	     11.63325033	     -4.48518375	      9.69466350	     16.58611120	      2.67814429	     11.62277920	    -48.33210916	      9.14703697	      9.42578199	     -1.32393987	      0.05336891	      0.01908949	     -0.03941446	      1.17319962	    -13.08186347	     -1.69556380	     -2.57957203
      0.97083333	      3.35972054	      2.19409654	      3.63841665	      0.42806239	      1.04526048	      0.32088808	     -0.69668996	      1.46254049	    -10.02568660	    -16.16398556	     11.45884800	     -3.81745957	      9.86910799	     17.03316718	      2.83684495	     11.73116366	    -47.96246984	      8.79785216	      9.39749699	     -1.35414318	      0.05163969	      0.01842366	     -0.03952727	      1.16720346	    -12.96003958	     -1.87228580	     -2.19038607
      0.97500000	      3.36278298	      2.19520859	      3.38016472	      0.43252413	      1.04567280	      0.32139825	     -0.98453724	      1.45188947	    -10.11189207	    -16.13045872	     11.46414090	     -3.77807356	      9.88661561	     17.49630500	      2.86891233	     11.77782141	    -47.64776271	      8.49447823	      9.38762659	     -1.39676162	      0.05046424	      0.01795007	     -0.03948130	      1.19573668	    -13.08125182	     -1.89994453	     -2.16748101
      0.97916667	      3.28647632	      2.28434280	      3.22833768	      0.43756000	      1.04618205	      0.32193786	     -1.48840163	      1.40556306	    -10.04641511	    -15.56213389	     11.39203893	     -3.29171859	     10.01122377	     17.96748581	      2.97147826	     11.87397332	    -47.27530575	      8.14195233	      9.37378296	     -1.41306726	      0.04894724	      0.01759707	     -0.03969220	      1.16237008	    -13.00277648	     -2.12337300	     -1.91868426
      0.98333333	      3.28118960	      2.28181243	      2.97580151	      0.44196854	      1.04650412	      0.32226646	     -1.76221358	      1.37675739	    -10.12018772	    -15.53243245	     11.38659590	     -3.24883447	     10.02716039	     18.40982403	      3.01410285	     11.93864381	    -46.92985864	      7.81172348	      9.32018214	     -1.44184379	      0.04756687	      0.01709221	     -0.03968137	      1.20285482	    -13.12393277	     -2.09909813	     -1.88721881
      0.98750000	      3.18487635	      2.33735080	      2.81944452	      0.44722004	      1.04694557	      0.32269795	     -2.28260057	      1.35718271	    -10.06592002	    -14.89933844	     11.28230262	     -2.73739286	     10.14804253	     18.78889697	      3.11598584	     12.01479168	    -46.48732461	      7.39115038	      9.22432806	     -1.47247033	      0.04561331	      0.01630421	     -0.03944110	      1.18088132	    -12.97192067	     -2.25537087	     -1.61771050
      0.99166667	      3.14958385	      2.37232987	      2.59588891	      0.45205091	      1.04726449	      0.32301013	     -2.68168335	      1.30407234	    -10.08828463	    -14.59135183	     11.16918952	     -2.36680981	     10.27446886	     19.10886918	      3.18648206	     12.07028858	    -46.04225109	      6.97057578	      9.11005058	     -1.49329501	      0.04355489	      0.01535896	     -0.03932714	      1.20189702	    -12.98079514	     -2.29968708	     -1.39319813
      0.99583333	      3.14513892	      2.35129514	      2.37541405	      0.45633004	      1.04745182	      0.32342673	     -2.94052059	      1.30728092	    -10.14981573	    -14.58333373	     11.17066252	     -2.33328245	     10.29165314	     19.55148578	      3.21508338	     12.14169790	    -45.67081853	      6.61314385	      9.02697387	     -1.52338579	      0.04216452	      0.01500359	     -0.03903710	      1.24395204	    -13.12817292	     -2.31900775	     -1.37394813
